<?xml version="1.0" encoding="utf-8"?>
<!-- Generator: Adobe Illustrator 22.1.0, SVG Export Plug-In . SVG Version: 6.00 Build 0)  -->
<svg version="1.1" id="Layer_1" xmlns="http://www.w3.org/2000/svg" xmlns:xlink="http://www.w3.org/1999/xlink" x="0px" y="0px"
	 viewBox="0 0 52 52" style="enable-background:new 0 0 52 52;" xml:space="preserve">
<style type="text/css">
	.st0{fill:#0183FF;}
</style>
<title>228 - Error (interaction, communication, essential, solid)</title>
<desc>Created with Sketch.</desc>
<g id="Page-1">
	<g id="Icons" transform="translate(-364.000000, -2162.000000)">
		<g id="Error" transform="translate(364.000000, 2162.000000)">
			<path id="Fill-91" class="st0" d="M44.4,7.6C34.2-2.5,17.8-2.5,7.6,7.6c-10.1,10.1-10.1,26.6,0,36.8c10.1,10.1,26.6,10.1,36.8,0
				C54.5,34.2,54.5,17.8,44.4,7.6L44.4,7.6z M33.4,36.3L26,28.8l-7.8,7.8c-0.8,0.8-2,0.8-2.8,0c-0.8-0.8-0.8-2,0-2.8l7.8-7.8
				l-7.4-7.4c-0.8-0.8-0.8-2,0-2.8s2-0.8,2.8,0l7.4,7.4l7.1-7.1c0.8-0.8,2-0.8,2.8,0c0.8,0.8,0.8,2,0,2.8L28.8,26l7.4,7.4
				c0.8,0.8,0.8,2,0,2.8C35.5,37,34.2,37,33.4,36.3L33.4,36.3z"/>
		</g>
	</g>
</g>
</svg>
