<?xml version="1.0" encoding="utf-8"?>
<!-- Generator: Adobe Illustrator 22.1.0, SVG Export Plug-In . SVG Version: 6.00 Build 0)  -->
<svg version="1.1" id="Layer_1" xmlns="http://www.w3.org/2000/svg" xmlns:xlink="http://www.w3.org/1999/xlink" x="0px" y="0px"
	 viewBox="0 0 52 52" style="enable-background:new 0 0 52 52;" xml:space="preserve">
<style type="text/css">
	.st0{fill:#0183FF;}
</style>
<title>227 - Success (interaction, communication, essential, solid)</title>
<desc>Created with Sketch.</desc>
<g id="Page-1">
	<g id="Icons" transform="translate(-484.000000, -2161.000000)">
		<g id="Success" transform="translate(484.000000, 2161.000000)">
			<path id="Fill-93" class="st0" d="M26,0C11.7,0,0,11.7,0,26s11.7,26,26,26s26-11.7,26-26S40.3,0,26,0L26,0z M40.5,17.3l-16,18
				C24.1,35.8,23.6,36,23,36c-0.4,0-0.9-0.1-1.2-0.4l-10-8c-0.9-0.7-1-1.9-0.3-2.8c0.7-0.9,1.9-1,2.8-0.3l8.5,6.8l14.7-16.6
				c0.7-0.8,2-0.9,2.8-0.2C41.2,15.2,41.2,16.5,40.5,17.3L40.5,17.3z"/>
		</g>
	</g>
</g>
</svg>
